<?xml version="1.0" standalone="no"?>
<!DOCTYPE svg PUBLIC "-//W3C//DTD SVG 20010904//EN"
 "http://www.w3.org/TR/2001/REC-SVG-20010904/DTD/svg10.dtd">
<svg version="1.0" xmlns="http://www.w3.org/2000/svg"
 width="718.000000pt" height="450.000000pt" viewBox="0 0 718.000000 450.000000"
 preserveAspectRatio="xMidYMid meet">

<g transform="translate(0.000000,450.000000) scale(0.100000,-0.100000)"
fill="#000000" stroke="none">
<path d="M83 4447 c-34 -29 -62 -58 -62 -65 -1 -8 27 10 62 39 96 82 94 79 77
78 -8 0 -43 -23 -77 -52z"/>
<path d="M3518 4493 c7 -3 16 -2 19 1 4 3 -2 6 -13 5 -11 0 -14 -3 -6 -6z"/>
<path d="M3568 4493 c12 -2 32 -2 45 0 12 2 2 4 -23 4 -25 0 -35 -2 -22 -4z"/>
<path d="M4440 4490 c0 -6 28 -10 65 -10 37 0 65 4 65 10 0 6 -28 10 -65 10
-37 0 -65 -4 -65 -10z"/>
<path d="M5040 4490 c0 -5 5 -10 11 -10 5 0 7 5 4 10 -3 6 -8 10 -11 10 -2 0
-4 -4 -4 -10z"/>
<path d="M5407 4493 c-18 -17 -1 -23 68 -23 60 0 75 3 75 15 0 12 -14 15 -68
15 -38 0 -72 -3 -75 -7z"/>
<path d="M5897 4493 c-17 -16 -3 -23 48 -23 42 0 55 3 55 15 0 11 -12 15 -48
15 -27 0 -52 -3 -55 -7z"/>
<path d="M2400 4383 l0 -93 169 0 169 0 6 31 c3 17 6 58 6 90 l0 59 -127 1
c-71 1 -149 3 -175 4 l-48 2 0 -94z"/>
<path d="M1847 4464 c-4 -4 -7 -38 -7 -75 0 -45 -4 -69 -12 -72 -7 -3 8 -5 35
-5 46 1 68 17 25 19 -18 1 -19 2 -5 6 10 3 17 12 16 21 -3 34 2 48 11 27 5
-14 7 -4 6 32 0 28 -4 46 -8 40 -6 -9 -8 -8 -8 2 0 10 -3 11 -13 2 -9 -7 -17
-7 -23 -1 -6 6 -13 7 -17 4z"/>
<path d="M1823 4405 c0 -27 2 -38 4 -22 2 15 2 37 0 50 -2 12 -4 0 -4 -28z"/>
<path d="M3510 4414 c0 -31 3 -36 20 -31 11 3 18 1 14 -4 -3 -5 -11 -9 -19 -9
-8 0 -18 -7 -23 -16 -5 -9 -29 -28 -55 -43 -58 -34 -98 -84 -150 -191 l-42
-85 -1 -125 c0 -74 -6 -137 -13 -155 -8 -20 -10 -52 -6 -96 5 -48 2 -89 -10
-143 -14 -64 -15 -91 -6 -172 11 -101 25 -138 126 -322 19 -35 35 -77 35 -92
0 -16 11 -50 25 -76 14 -25 31 -84 39 -130 8 -47 18 -88 21 -94 3 -5 1 -11 -5
-15 -5 -3 -10 -13 -10 -22 0 -11 6 -14 25 -9 23 6 25 4 25 -31 0 -38 13 -37
24 2 3 11 4 1 3 -22 -2 -29 1 -39 9 -32 13 11 69 -45 60 -60 -5 -7 -1 -8 10
-4 11 4 15 3 10 -5 -3 -6 -2 -13 4 -17 21 -13 9 25 -17 52 -16 15 -35 37 -43
48 -14 19 -14 19 6 5 12 -8 43 -32 70 -52 78 -60 144 -81 249 -82 120 -1 149
13 199 100 45 78 66 104 84 104 12 0 12 -3 2 -15 -9 -10 -9 -15 -1 -15 6 0 11
-5 11 -11 0 -5 -3 -8 -7 -6 -5 3 -9 -17 -10 -44 -1 -27 2 -49 8 -49 5 0 9 -6
9 -14 0 -8 4 -17 9 -20 4 -3 3 12 -2 34 -8 28 -8 46 1 65 11 23 14 24 34 14
22 -12 22 -11 6 8 -21 23 -22 47 -19 368 3 252 6 295 27 295 7 0 18 10 25 23
6 12 25 36 41 54 18 18 30 42 31 57 0 15 3 29 8 32 5 3 6 -3 3 -13 -12 -37 27
20 58 85 27 55 30 71 25 123 -4 44 0 73 15 114 11 31 18 72 16 97 -2 30 2 48
14 60 36 36 32 143 -8 236 -8 18 -14 39 -14 47 0 8 -7 15 -15 15 -8 0 -15 3
-15 8 0 4 -18 18 -40 32 -22 13 -40 28 -40 32 0 4 -5 8 -10 8 -6 0 -66 27
-133 60 -68 33 -135 60 -149 60 -13 0 -47 7 -74 15 -57 17 -67 18 -59 6 3 -5
-20 -1 -52 10 -31 12 -67 19 -80 16 -13 -2 -23 -1 -23 2 0 4 -13 8 -30 9 -19
1 -30 -2 -30 -10 0 -9 -3 -10 -8 -2 -4 6 -19 14 -33 17 -22 6 -25 11 -21 32 4
25 3 25 -62 25 l-66 0 0 -36z m167 -40 c-3 -3 -12 -4 -19 -1 -8 3 -5 6 6 6 11
1 17 -2 13 -5z m109 -33 c17 -11 17 -12 1 -7 -10 3 -36 6 -58 6 -21 0 -39 4
-39 9 0 13 72 7 96 -8z m62 -17 c-9 -9 -22 -14 -30 -11 -8 3 -4 8 12 15 35 15
37 14 18 -4z m-88 -54 c10 -7 -6 -9 -52 -7 -37 1 -68 5 -68 10 0 11 102 8 120
-3z m572 -222 c-7 -7 -12 -8 -12 -2 0 6 3 14 7 17 3 4 9 5 12 2 2 -3 -1 -11
-7 -17z m122 7 c3 -8 1 -15 -5 -15 -6 0 -7 -5 -3 -12 4 -7 3 -8 -4 -4 -14 8
-16 46 -3 46 5 0 11 -7 15 -15z m-647 -57 c-2 -7 -10 -12 -16 -10 -16 3 -14
-34 4 -51 11 -11 13 -29 9 -66 -4 -35 -2 -51 6 -51 6 0 8 -4 5 -10 -3 -5 3
-10 14 -10 25 0 38 -20 20 -31 -22 -14 -39 -11 -39 7 0 12 -6 15 -22 9 -106
-32 -187 -31 -218 3 -26 28 -25 38 8 68 15 14 27 31 27 37 0 7 6 13 13 13 6 1
17 2 22 3 6 0 10 8 10 16 0 9 9 15 25 15 18 0 25 5 25 19 0 11 10 27 22 35 27
20 92 22 85 4z m13 -32 c0 -2 -7 -6 -15 -10 -8 -3 -15 -1 -15 4 0 6 7 10 15
10 8 0 15 -2 15 -4z m-430 -356 c0 -5 -4 -10 -10 -10 -5 0 -10 5 -10 10 0 6 5
10 10 10 6 0 10 -4 10 -10z m161 -77 c-14 -51 -14 -63 3 -63 15 0 30 -27 27
-48 -1 -7 12 -18 29 -23 47 -17 31 -33 -27 -30 -28 1 -54 -2 -58 -8 -3 -6 -16
-11 -28 -11 -18 0 -27 10 -40 47 l-18 47 26 23 c15 14 27 40 31 63 4 22 10 40
15 40 4 0 11 9 14 21 l7 21 14 -21 c12 -16 13 -29 5 -58z m284 47 c3 -5 1 -10
-4 -10 -6 0 -11 5 -11 10 0 6 2 10 4 10 3 0 8 -4 11 -10z m126 -89 c-8 -5 -11
-16 -8 -25 5 -12 -1 -20 -18 -26 -14 -5 -25 -13 -24 -17 3 -21 -2 -33 -15 -33
-8 0 -17 -7 -20 -16 -3 -8 -10 -13 -15 -10 -5 4 -12 0 -14 -6 -4 -10 -8 -10
-15 1 -6 8 -17 11 -26 8 -9 -4 -26 -2 -39 3 -31 12 -93 73 -79 78 7 2 12 13
12 24 0 21 17 19 74 -8 16 -8 52 -13 80 -13 28 1 43 3 33 6 -9 2 -15 9 -12 14
9 13 53 11 58 -3 3 -7 6 -3 6 10 1 14 7 22 19 22 14 0 14 -2 3 -9z m-264 -227
c-3 -3 -12 -4 -19 -1 -8 3 -5 6 6 6 11 1 17 -2 13 -5z m-114 -151 c-7 -2 -19
-2 -25 0 -7 3 -2 5 12 5 14 0 19 -2 13 -5z"/>
<path d="M4519 4433 c-13 -3 -18 -21 -22 -81 -2 -42 -3 -80 0 -84 2 -5 30 -8
62 -8 l58 0 2 88 1 87 -42 1 c-24 1 -50 -1 -59 -3z"/>
<path d="M4632 4350 c2 -72 6 -90 18 -90 12 0 16 16 18 70 4 81 -3 110 -24
110 -13 0 -15 -15 -12 -90z"/>
<path d="M5540 4413 c0 -16 -3 -58 -7 -95 l-6 -68 87 0 86 0 0 95 0 95 -80 0
-80 0 0 -27z"/>
<path d="M6087 4432 c-16 -3 -17 -14 -15 -95 l3 -92 40 -3 c21 -2 53 -1 71 3
27 5 31 9 26 27 -3 12 -1 19 4 15 5 -3 8 26 6 69 -4 74 -4 74 -32 74 -25 0
-29 -4 -33 -32 l-3 -33 -8 32 c-8 31 -26 42 -59 35z"/>
<path d="M4300 4411 c0 -25 6 -27 13 -6 4 8 2 17 -3 20 -6 4 -10 -3 -10 -14z"/>
<path d="M5087 4414 c-4 -4 -6 -28 -6 -53 1 -42 2 -43 9 -16 6 23 8 25 9 9 0
-12 8 -25 17 -28 12 -4 14 -14 9 -36 -4 -19 -3 -30 5 -30 6 0 10 8 8 17 -2 10
3 18 11 18 8 0 17 9 22 20 7 19 8 19 8 -2 1 -12 -4 -25 -9 -28 -9 -6 10 -35
23 -35 3 0 6 39 6 86 1 75 -1 85 -14 74 -8 -6 -19 -9 -26 -5 -6 4 -15 1 -20
-6 -6 -10 -9 -11 -9 -1 0 19 -20 14 -21 -5 -1 -13 -3 -11 -8 5 -3 13 -9 20
-14 16z"/>
<path d="M1750 4386 c0 -9 5 -16 10 -16 6 0 10 4 10 9 0 6 -4 13 -10 16 -5 3
-10 -1 -10 -9z"/>
<path d="M1745 4341 c3 -6 -3 -14 -12 -20 -14 -8 -7 -10 32 -10 45 1 47 2 22
11 -15 5 -25 14 -21 19 3 5 -2 9 -11 9 -9 0 -14 -4 -10 -9z"/>
<path d="M4243 4315 c0 -22 2 -30 4 -17 2 12 2 30 0 40 -3 9 -5 -1 -4 -23z"/>
<path d="M4305 4270 c4 -6 11 -8 16 -5 14 9 11 15 -7 15 -8 0 -12 -5 -9 -10z"/>
<path d="M1705 4252 c-3 -3 -5 -36 -5 -73 0 -56 -3 -68 -17 -72 -17 -4 -17 -5
0 -6 9 0 17 -5 17 -10 0 -12 -74 -1 -78 11 -2 4 -13 8 -23 8 -11 0 -18 -4 -14
-9 3 -5 -3 -12 -12 -14 -10 -3 7 -6 37 -7 41 -1 50 -4 35 -10 -14 -6 1 -9 49
-9 55 -1 66 2 58 12 -12 14 -11 35 1 54 5 7 7 37 5 67 -2 47 -6 55 -25 59 -12
2 -25 2 -28 -1z"/>
<path d="M2298 4254 c-5 -4 -8 -51 -8 -104 l0 -97 31 -7 c17 -3 101 -6 185 -6
l154 0 0 94 c0 97 -6 130 -21 121 -12 -8 -144 -8 -247 0 -48 4 -90 4 -94 -1z"/>
<path d="M1605 4220 c-3 -5 1 -10 10 -10 9 0 13 5 10 10 -3 6 -8 10 -10 10 -2
0 -7 -4 -10 -10z"/>
<path d="M1560 4186 c0 -20 2 -36 4 -36 8 0 12 61 4 66 -4 3 -8 -11 -8 -30z"/>
<path d="M4547 4213 c-4 -3 -7 -51 -7 -105 l0 -98 95 0 c76 0 93 3 89 14 -3 8
-1 37 4 65 5 28 5 48 0 45 -5 -3 -6 12 -2 35 4 23 3 41 -2 42 -95 6 -172 8
-177 2z"/>
<path d="M5680 4211 c-10 -7 -16 -37 -20 -110 l-5 -101 73 -2 c39 -1 84 -2 99
-2 l28 -1 3 88 c6 136 7 134 -85 136 -43 0 -85 -3 -93 -8z"/>
<path d="M4766 4179 c-3 -17 -6 -62 -6 -100 0 -55 3 -69 15 -69 12 0 15 15 15
78 0 42 3 87 6 100 5 15 2 22 -9 22 -8 0 -17 -13 -21 -31z"/>
<path d="M6266 4177 c-3 -16 -6 -65 -6 -108 l0 -79 78 0 78 0 1 28 c0 15 4 59
8 98 9 85 7 87 -86 89 -67 1 -67 1 -73 -28z"/>
<path d="M5192 4160 c0 -19 2 -27 5 -17 2 9 2 25 0 35 -3 9 -5 1 -5 -18z"/>
<path d="M5233 4183 c-16 -3 -23 -11 -23 -29 0 -21 5 -24 35 -24 19 0 35 -5
35 -11 0 -7 -14 -10 -35 -7 l-35 4 0 -44 0 -44 26 32 c32 37 69 39 68 3 0 -13
3 -23 8 -23 4 0 8 15 8 34 0 18 3 48 7 66 5 28 4 32 -10 27 -9 -3 -18 0 -21 9
-5 14 -19 15 -63 7z"/>
<path d="M1780 4168 c0 -7 5 -20 10 -28 8 -12 10 -11 10 7 0 12 -4 25 -10 28
-5 3 -10 0 -10 -7z"/>
<path d="M1605 4151 c-3 -5 -1 -12 5 -16 5 -3 10 1 10 9 0 18 -6 21 -15 7z"/>
<path d="M1241 4134 c0 -11 3 -14 6 -6 3 7 2 16 -1 19 -3 4 -6 -2 -5 -13z"/>
<path d="M1780 4109 c0 -5 5 -7 10 -4 6 3 10 8 10 11 0 2 -4 4 -10 4 -5 0 -10
-5 -10 -11z"/>
<path d="M1133 4093 c-32 -12 -8 -23 50 -22 34 1 51 4 37 6 -14 3 -29 9 -34
14 -11 10 -33 11 -53 2z"/>
<path d="M6713 4040 c0 -25 2 -35 4 -22 2 12 2 32 0 45 -2 12 -4 2 -4 -23z"/>
<path d="M6751 4011 c-9 -6 2 -10 34 -13 26 -2 49 0 51 4 3 5 -6 8 -20 8 -13
0 -30 2 -38 5 -7 3 -19 1 -27 -4z"/>
<path d="M1519 3983 c-5 -13 -9 -32 -10 -41 -1 -9 -6 0 -11 21 -9 34 -13 37
-46 37 -30 -1 -34 -3 -19 -11 9 -5 22 -7 27 -4 6 3 10 1 10 -4 0 -6 -6 -11
-14 -11 -17 0 -31 -52 -27 -97 1 -17 -4 -44 -12 -60 -15 -27 -15 -27 -10 20 4
31 2 47 -6 47 -6 0 -11 -6 -12 -12 -1 -7 -3 -30 -4 -50 -4 -40 -1 -42 68 -41
9 0 17 -4 17 -9 0 -4 42 -8 93 -8 50 0 86 4 79 8 -10 7 -10 24 -2 78 13 96 13
150 -2 152 -7 0 -35 3 -61 5 -44 4 -49 2 -58 -20z m-2 -179 c-3 -3 -12 -4 -19
-1 -8 3 -5 6 6 6 11 1 17 -2 13 -5z"/>
<path d="M2178 3882 c-2 -68 -1 -125 2 -127 3 -2 94 -7 203 -11 l197 -7 0 132
c0 98 -3 131 -12 132 -7 0 -97 2 -200 3 l-187 3 -3 -125z"/>
<path d="M4626 3962 c-2 -4 -5 -61 -7 -127 l-4 -120 113 -3 112 -3 0 126 0
125 -30 0 c-19 0 -33 -6 -37 -17 -6 -14 -7 -14 -14 4 -6 17 -16 20 -68 21 -34
0 -63 -3 -65 -6z"/>
<path d="M5848 3952 c-15 -17 -27 -245 -13 -254 5 -4 53 -8 106 -8 l96 0 7 53
c3 28 6 89 6 135 l0 82 -37 1 c-121 5 -155 3 -165 -9z"/>
<path d="M6478 3820 l-3 -130 96 0 c72 0 98 3 102 13 3 8 8 63 12 124 9 129
15 123 -122 123 l-82 0 -3 -130z"/>
<path d="M5336 3932 c-9 -14 -5 -144 5 -157 4 -5 9 -19 12 -30 2 -11 6 0 7 25
2 25 5 35 7 24 3 -15 10 -20 22 -17 11 3 21 -2 24 -11 5 -11 1 -16 -13 -16
-13 0 -18 -5 -14 -15 4 -10 13 -13 24 -10 10 3 20 0 23 -9 3 -8 14 -14 24 -13
17 1 19 13 21 113 l3 112 -33 5 c-18 2 -41 1 -50 -4 -11 -6 -18 -5 -21 4 -4 9
-8 9 -15 -2 -8 -11 -10 -11 -14 0 -3 10 -6 10 -12 1z m64 -72 c0 -5 -4 -10
-10 -10 -5 0 -10 5 -10 10 0 6 5 10 10 10 6 0 10 -4 10 -10z"/>
<path d="M1405 3920 c-3 -5 -1 -10 4 -10 6 0 11 5 11 10 0 6 -2 10 -4 10 -3 0
-8 -4 -11 -10z"/>
<path d="M5042 3910 c0 -14 2 -19 5 -12 2 6 2 18 0 25 -3 6 -5 1 -5 -13z"/>
<path d="M5116 3922 c-2 -4 -1 -14 3 -21 6 -10 10 -9 14 3 6 16 -8 32 -17 18z"/>
<path d="M5080 3901 c0 -11 5 -23 10 -26 6 -4 10 5 10 19 0 14 -4 26 -10 26
-5 0 -10 -9 -10 -19z"/>
<path d="M5011 3874 c0 -11 3 -14 6 -6 3 7 2 16 -1 19 -3 4 -6 -2 -5 -13z"/>
<path d="M5032 3845 c0 -16 2 -22 5 -12 2 9 2 23 0 30 -3 6 -5 -1 -5 -18z"/>
<path d="M5060 3800 c0 -13 11 -13 30 0 12 8 11 10 -7 10 -13 0 -23 -4 -23
-10z"/>
<path d="M1312 3601 c4 -88 2 -111 -9 -111 -7 0 -13 7 -13 15 0 8 -4 15 -10
15 -5 0 -10 -5 -10 -12 0 -8 -3 -9 -10 -2 -7 7 -8 35 -4 77 8 74 27 93 23 22
-2 -24 0 -47 4 -51 4 -4 7 23 7 59 0 59 -2 67 -19 67 -11 0 -21 5 -23 11 -4
12 -38 1 -38 -13 0 -5 5 -6 10 -3 9 6 15 -98 13 -227 l0 -38 128 0 c118 0 129
2 129 18 0 29 -20 43 -37 26 -8 -8 -20 -11 -26 -7 -7 4 -6 8 3 11 22 7 29 22
25 59 -4 47 13 52 20 6 11 -67 13 -60 14 44 1 83 -2 101 -13 97 -7 -3 -16 2
-20 12 -5 12 -9 14 -20 5 -10 -9 -15 -8 -20 4 -15 40 -23 -4 -21 -113 3 -173
-11 -180 -21 -12 l-9 145 -29 3 -29 4 5 -111z m161 31 c10 -15 -1 -54 -13 -47
-5 3 -7 12 -3 20 3 10 -2 15 -16 15 -12 0 -21 6 -21 13 0 17 42 16 53 -1z
m-33 -42 c0 -5 -4 -10 -10 -10 -5 0 -10 5 -10 10 0 6 5 10 10 10 6 0 10 -4 10
-10z m-13 -42 c-3 -8 -6 -5 -6 6 -1 11 2 17 5 13 3 -3 4 -12 1 -19z m-107 -92
c0 -3 -4 -8 -10 -11 -5 -3 -10 -1 -10 4 0 6 5 11 10 11 6 0 10 -2 10 -4z"/>
<path d="M2057 3702 c-15 -3 -17 -21 -17 -151 l0 -148 68 -6 c37 -4 136 -7
220 -7 l152 0 0 149 c0 97 -4 152 -11 157 -11 6 -381 12 -412 6z"/>
<path d="M1475 3690 c3 -5 8 -10 11 -10 2 0 4 5 4 10 0 6 -5 10 -11 10 -5 0
-7 -4 -4 -10z"/>
<path d="M4729 3660 c-10 -7 -15 -44 -17 -153 l-4 -144 83 -6 c46 -4 101 -7
123 -7 l38 0 -4 75 c-2 41 -1 75 3 75 9 0 10 138 0 144 -5 4 -49 9 -98 12 -48
3 -93 7 -99 9 -6 2 -17 -1 -25 -5z"/>
<path d="M6040 3645 c-13 -16 -28 -139 -29 -247 l-1 -58 118 0 119 0 6 98 c4
53 7 124 7 157 l0 60 -103 3 c-86 3 -106 1 -117 -13z"/>
<path d="M6740 3596 c0 -29 -3 -101 -7 -159 l-6 -107 95 0 96 0 7 28 c4 15 6
64 6 109 -1 45 2 84 7 87 12 7 3 63 -12 74 -6 5 -50 12 -98 16 l-88 6 0 -54z"/>
<path d="M5549 3618 c-6 -11 -13 -52 -14 -90 -2 -38 -6 -72 -10 -76 -4 -4 -5
31 -2 78 5 80 4 86 -14 87 -17 2 -19 -5 -19 -58 0 -33 5 -70 11 -81 9 -17 8
-24 -5 -33 -18 -14 -21 -31 -6 -40 6 -4 7 1 3 12 -6 16 -5 16 10 4 10 -7 17
-19 16 -25 -4 -36 2 -43 43 -44 23 -1 49 0 58 3 17 5 24 35 8 35 -4 0 -8 5 -8
11 0 5 3 8 8 6 4 -3 8 31 10 75 2 51 0 78 -6 74 -6 -3 -13 1 -16 10 -4 12 -1
14 14 9 11 -4 20 -2 20 3 0 15 -26 33 -35 24 -4 -4 -4 3 -1 16 7 19 4 22 -23
22 -21 0 -34 -7 -42 -22z m54 -142 c21 -16 22 -42 2 -50 -12 -4 -13 -2 -5 13
8 16 5 20 -15 25 -14 4 -25 11 -25 16 0 14 22 12 43 -4z m-30 -63 c8 -7 -21
-43 -35 -43 -4 0 -8 11 -8 25 0 18 5 25 18 25 10 0 22 -3 25 -7z m44 -49 c-3
-3 -12 -4 -19 -1 -8 3 -5 6 6 6 11 1 17 -2 13 -5z"/>
<path d="M1200 3445 c0 -8 5 -15 10 -15 6 0 10 7 10 15 0 8 -4 15 -10 15 -5 0
-10 -7 -10 -15z"/>
<path d="M72 3410 c0 -14 2 -19 5 -12 2 6 2 18 0 25 -3 6 -5 1 -5 -13z"/>
<path d="M4428 3369 c-7 -5 22 -9 71 -9 46 0 82 2 80 5 -9 9 -138 12 -151 4z"/>
<path d="M83 3310 c0 -30 2 -43 4 -27 2 15 2 39 0 55 -2 15 -4 2 -4 -28z"/>
<path d="M1906 3307 c-3 -28 -6 -118 -6 -199 l0 -148 89 0 c52 0 93 4 96 10 5
8 11 8 20 0 8 -7 63 -10 151 -8 l139 3 2 190 c2 127 0 185 -7 175 -8 -13 -10
-13 -10 1 0 15 -25 17 -226 18 -125 1 -230 3 -234 6 -4 2 -10 -19 -14 -48z"/>
<path d="M1166 3280 c-5 -49 -11 -70 -21 -70 -7 0 -16 10 -18 23 -4 19 -4 18
-6 -5 -1 -29 -15 -38 -24 -15 -3 6 -6 0 -6 -15 -1 -14 4 -28 11 -30 16 -6 2
-38 -17 -38 -8 0 -15 7 -15 15 0 9 -6 12 -15 9 -8 -4 -15 -15 -15 -25 0 -14
-7 -19 -25 -19 -18 0 -25 5 -25 19 0 25 -34 21 -38 -5 -3 -16 -1 -17 7 -4 9
13 12 11 17 -7 5 -17 14 -23 38 -24 l31 -1 -29 -8 c-16 -5 -33 -7 -37 -5 -10
7 -19 -22 -19 -63 0 -28 3 -33 10 -22 6 10 10 11 10 3 0 -10 35 -13 140 -13
162 0 145 -15 155 140 3 52 8 127 11 165 l5 70 -20 -40 c-24 -44 -26 -60 -9
-49 8 5 9 2 3 -12 -4 -10 -13 -48 -20 -84 -14 -72 -18 -55 -16 67 1 62 -2 75
-21 93 -12 11 -25 20 -29 20 -3 0 -10 -31 -13 -70z m23 -73 c1 -5 -3 -5 -9 -2
-5 3 -10 16 -9 28 0 21 1 21 9 2 5 -11 9 -24 9 -28z m-12 -107 c1 -50 -2 -90
-7 -90 -4 0 -10 38 -12 84 -2 46 0 82 5 79 4 -2 7 1 7 6 0 6 1 11 3 11 1 0 3
-41 4 -90z m-47 -14 c0 -3 -4 -8 -10 -11 -5 -3 -10 -1 -10 4 0 6 5 11 10 11 6
0 10 -2 10 -4z"/>
<path d="M977 3320 c3 -11 12 -20 19 -20 18 0 18 8 0 26 -20 19 -25 18 -19 -6z"/>
<path d="M1141 3304 c0 -11 3 -14 6 -6 3 7 2 16 -1 19 -3 4 -6 -2 -5 -13z"/>
<path d="M4816 3201 c-3 -57 -6 -127 -6 -156 l0 -51 118 -37 c64 -21 131 -37
148 -37 l31 0 1 63 c2 61 2 62 -13 32 -14 -28 -14 -24 -8 55 6 77 5 211 -1
217 -2 3 -121 12 -212 16 l-51 3 -7 -105z"/>
<path d="M1051 3283 c-10 -11 -10 -18 -2 -26 14 -14 23 -4 19 21 -3 18 -5 18
-17 5z"/>
<path d="M6295 3270 c-13 -25 -18 -73 -22 -201 l-6 -169 140 0 139 0 -4 60
c-3 43 -1 60 8 60 9 0 10 28 6 113 -3 67 -2 100 3 82 8 -29 9 -28 10 13 0 23
-3 42 -9 42 -5 0 -10 6 -10 13 0 10 -28 14 -119 16 l-120 2 -16 -31z"/>
<path d="M7109 3283 c-26 -4 -27 -5 -39 -131 -6 -70 -12 -156 -13 -192 l-2
-65 63 -3 62 -3 -2 198 c-3 219 1 207 -69 196z"/>
<path d="M4548 3273 c7 -3 16 -2 19 1 4 3 -2 6 -13 5 -11 0 -14 -3 -6 -6z"/>
<path d="M4630 3265 c0 -8 4 -15 10 -15 5 0 7 7 4 15 -4 8 -8 15 -10 15 -2 0
-4 -7 -4 -15z"/>
<path d="M5113 3245 c-3 -9 -3 -18 -1 -21 3 -3 8 4 11 16 6 23 -1 27 -10 5z"/>
<path d="M5732 3252 c-7 -2 -12 -10 -12 -18 0 -9 4 -13 8 -10 5 3 9 -1 9 -9 0
-8 -4 -12 -7 -10 -4 3 -2 -23 5 -58 13 -65 37 -121 48 -110 4 3 7 1 7 -5 0 -7
5 -12 10 -12 13 0 13 57 1 64 -5 4 -11 0 -14 -6 -2 -7 -8 -9 -13 -5 -9 9 6 39
24 45 7 2 12 -3 12 -12 0 -36 18 -12 24 32 3 26 8 62 12 80 4 20 2 32 -5 32
-6 0 -11 -15 -11 -32 0 -23 -3 -29 -9 -19 -5 8 -11 9 -15 3 -8 -14 -46 -3 -46
14 0 18 17 27 23 12 4 -8 6 -7 6 3 1 17 -33 29 -57 21z"/>
<path d="M5800 3241 c0 -6 4 -12 8 -15 5 -3 9 1 9 9 0 8 -4 15 -9 15 -4 0 -8
-4 -8 -9z"/>
<path d="M1062 3200 c0 -19 2 -27 5 -17 2 9 2 25 0 35 -3 9 -5 1 -5 -18z"/>
<path d="M93 3160 c0 -36 2 -50 4 -32 2 17 2 47 0 65 -2 17 -4 3 -4 -33z"/>
<path d="M4631 3190 c0 -8 4 -22 9 -30 12 -18 12 -2 0 25 -6 13 -9 15 -9 5z"/>
<path d="M4498 3168 c5 -5 16 -8 23 -6 8 3 3 7 -10 11 -17 4 -21 3 -13 -5z"/>
<path d="M4508 3143 c7 -3 16 -2 19 1 4 3 -2 6 -13 5 -11 0 -14 -3 -6 -6z"/>
<path d="M4537 3121 c-17 -6 -17 -8 6 -18 24 -11 37 -8 37 8 0 5 -7 5 -17 2
-11 -4 -14 -3 -9 5 8 13 8 13 -17 3z"/>
<path d="M5681 3104 c0 -11 3 -14 6 -6 3 7 2 16 -1 19 -3 4 -6 -2 -5 -13z"/>
<path d="M103 3050 c0 -25 2 -35 4 -22 2 12 2 32 0 45 -2 12 -4 2 -4 -23z"/>
<path d="M946 3075 c-3 -8 -1 -15 4 -15 6 0 10 7 10 15 0 8 -2 15 -4 15 -2 0
-6 -7 -10 -15z"/>
<path d="M4630 3050 c0 -11 4 -20 9 -20 5 0 7 9 4 20 -3 11 -7 20 -9 20 -2 0
-4 -9 -4 -20z"/>
<path d="M5825 3038 c-4 -15 -5 -31 -2 -35 3 -5 -6 -13 -19 -20 -13 -6 -24 -7
-24 -2 0 5 -4 9 -10 9 -5 0 -10 -7 -10 -15 0 -8 5 -15 11 -15 5 0 9 -10 7 -22
-3 -21 1 -23 47 -24 l50 -2 -50 8 c-47 6 -48 7 -12 8 21 1 40 8 43 15 2 7 -2
38 -10 68 -13 49 -14 52 -21 27z"/>
<path d="M5731 3024 c0 -11 3 -14 6 -6 3 7 2 16 -1 19 -3 4 -6 -2 -5 -13z"/>
<path d="M937 3010 c-3 -11 -1 -23 4 -26 5 -3 9 6 9 20 0 31 -6 34 -13 6z"/>
<path d="M5730 2980 c0 -5 5 -10 10 -10 6 0 10 5 10 10 0 6 -4 10 -10 10 -5 0
-10 -4 -10 -10z"/>
<path d="M5381 2964 c0 -11 3 -14 6 -6 3 7 2 16 -1 19 -3 4 -6 -2 -5 -13z"/>
<path d="M113 2875 c0 -33 2 -45 4 -27 2 18 2 45 0 60 -2 15 -4 0 -4 -33z"/>
<path d="M1709 2930 c0 -3 -6 -113 -12 -246 l-12 -241 179 -7 c99 -3 249 -6
335 -6 l156 0 3 228 c2 125 -1 232 -5 239 -9 12 -198 21 -210 10 -3 -4 -14 -2
-24 4 -13 6 -19 6 -19 -1 0 -6 -42 -10 -115 -10 -68 0 -115 4 -115 10 0 5 -29
8 -72 5 -50 -3 -75 0 -80 8 -4 7 -8 10 -9 7z"/>
<path d="M905 2907 c-4 -10 -5 -78 -2 -150 3 -85 2 -113 -3 -78 -4 29 -13 58
-19 64 -6 6 -11 41 -11 78 0 65 -1 67 -30 79 -25 11 -60 11 -148 0 -2 0 0 -4
3 -10 11 -18 -5 -31 -25 -20 -16 8 -18 8 -14 -5 4 -8 10 -15 15 -15 5 0 8 -3
8 -7 -1 -5 -1 -41 0 -80 1 -67 3 -73 22 -73 21 0 21 -1 4 -26 -10 -16 -14 -35
-10 -51 4 -19 1 -26 -15 -30 -20 -5 -25 -17 -35 -85 l-5 -38 118 0 c64 -1 152
-3 195 -7 l77 -5 0 79 c0 44 -3 148 -7 232 l-6 152 -26 -3 c-17 -2 -27 -11
-32 -28 -7 -25 -7 -25 -8 3 -1 32 -20 27 -22 -6 -1 -14 -4 -9 -9 13 -5 29 -8
32 -15 17z m-185 -143 c0 -36 -4 -64 -10 -64 -6 0 -10 30 -10 71 0 44 4 68 10
64 6 -3 10 -35 10 -71z m37 -66 c-3 -8 -6 -5 -6 6 -1 11 2 17 5 13 3 -3 4 -12
1 -19z"/>
<path d="M2940 2893 c8 -3 47 -25 86 -48 61 -37 75 -42 105 -36 l34 7 -44 6
c-24 4 -66 21 -94 38 -27 17 -62 33 -76 34 -14 2 -19 1 -11 -1z"/>
<path d="M5167 2796 c3 -45 17 -109 39 -173 26 -77 34 -118 34 -172 l0 -71
238 2 237 3 -192 2 c-144 3 -193 7 -193 16 -5 126 -5 205 1 201 4 -2 7 52 7
121 0 116 -7 149 -22 109 -3 -9 -6 -77 -7 -152 0 -75 -4 -157 -8 -182 -4 -25
-5 47 -3 160 l5 206 -70 0 -70 1 4 -71z m130 -368 c-3 -8 -6 -5 -6 6 -1 11 2
17 5 13 3 -3 4 -12 1 -19z"/>
<path d="M6682 2843 c-8 -15 -16 -150 -26 -426 -1 -39 -2 -40 -66 -50 -14 -3
76 -5 200 -6 124 0 263 -3 310 -6 66 -3 76 -2 45 5 -22 5 -64 9 -94 9 l-54 1
6 235 c5 202 4 235 -8 235 -8 0 -15 -6 -16 -12 0 -7 -4 -3 -9 9 -8 20 -15 21
-144 22 -120 2 -136 0 -144 -16z m285 -415 c-3 -8 -6 -5 -6 6 -1 11 2 17 5 13
3 -3 4 -12 1 -19z"/>
<path d="M123 2740 c0 -41 2 -58 4 -37 2 20 2 54 0 75 -2 20 -4 3 -4 -38z"/>
<path d="M4723 2803 c20 -2 54 -2 75 0 20 2 3 4 -38 4 -41 0 -58 -2 -37 -4z"/>
<path d="M6001 2688 c-2 -68 -6 -163 -9 -213 l-7 -90 -65 -6 c-36 -3 90 -5
280 -5 190 0 270 2 178 3 -120 3 -168 7 -168 15 0 9 -3 9 -12 0 -7 -7 -39 -12
-72 -12 -67 0 -71 11 -4 14 l43 1 0 104 c0 75 -4 106 -12 109 -16 5 -17 64 -2
79 15 15 20 106 6 115 -7 4 -44 8 -83 8 l-71 0 -2 -122z m99 -24 c0 -28 -15
-25 -23 6 -3 13 0 20 9 20 8 0 14 -10 14 -26z"/>
<path d="M4585 2785 c-27 -7 -61 -15 -75 -18 l-25 -4 25 -1 c14 -1 57 7 95 18
39 10 61 18 50 18 -11 1 -42 -5 -70 -13z"/>
<path d="M2626 2650 c24 -43 67 -101 71 -96 3 2 -6 19 -19 37 -27 39 -65 81
-52 59z"/>
<path d="M133 2610 c0 -25 2 -35 4 -22 2 12 2 32 0 45 -2 12 -4 2 -4 -23z"/>
<path d="M2740 2632 c0 -15 79 -180 80 -166 0 23 -40 126 -60 151 -11 14 -20
21 -20 15z"/>
<path d="M5043 2563 c-15 -21 -51 -64 -80 -96 -57 -62 -58 -64 -43 -87 8 -13
10 -12 10 2 0 10 36 60 80 112 44 52 80 97 80 100 0 17 -22 1 -47 -31z"/>
<path d="M2705 2530 c3 -5 8 -10 11 -10 2 0 4 5 4 10 0 6 -5 10 -11 10 -5 0
-7 -4 -4 -10z"/>
<path d="M13 2513 c-7 -2 -13 -13 -13 -24 0 -16 7 -19 53 -19 33 0 47 3 38 9
-11 7 -11 9 0 14 8 3 2 6 -13 6 -15 1 -30 6 -33 11 -7 11 -13 11 -32 3z"/>
<path d="M5546 2471 c-4 -5 -2 -12 3 -15 5 -4 12 -2 15 3 4 5 2 12 -3 15 -5 4
-12 2 -15 -3z"/>
<path d="M3515 2460 c-3 -5 -4 -10 -1 -10 2 0 12 -3 20 -6 12 -5 15 -2 10 10
-7 18 -20 21 -29 6z"/>
<path d="M3485 2424 c-10 -7 -60 -23 -112 -35 -75 -17 -112 -21 -181 -16 -48
3 -98 9 -111 13 -24 7 -23 6 8 -39 44 -64 76 -66 203 -15 73 28 79 29 102 15
13 -9 34 -33 47 -53 22 -37 22 -37 32 -13 5 14 11 19 14 11 3 -6 8 -10 12 -8
4 3 15 -17 25 -44 10 -27 25 -55 34 -62 14 -11 15 -10 8 7 -5 11 -10 36 -13
55 -3 19 -9 53 -13 75 -5 22 -8 41 -6 42 1 2 22 -15 46 -37 24 -22 49 -39 56
-36 28 11 48 -208 35 -374 -6 -75 -7 -126 -1 -128 5 -2 6 -10 3 -18 -4 -12 -8
-13 -13 -4 -5 8 -14 -8 -24 -41 -18 -60 -51 -123 -43 -81 3 12 1 22 -4 22 -5
0 -9 33 -10 73 l-1 72 -15 -95 c-24 -152 -9 -140 -175 -140 -79 0 -183 -5
-231 -11 -49 -6 -100 -8 -113 -5 -32 8 -91 62 -111 100 -16 30 -40 55 -55 56
-15 0 -8 -26 17 -62 14 -20 25 -39 25 -43 0 -3 -18 -12 -40 -21 -40 -16 -53
-34 -25 -34 25 0 64 -23 70 -41 11 -33 -16 -109 -46 -132 -17 -12 -29 -30 -29
-44 0 -12 -10 -42 -21 -66 l-22 -44 27 -39 c26 -39 35 -84 16 -84 -6 0 -13 7
-16 15 -4 8 -10 12 -15 9 -5 -3 -9 1 -9 9 0 20 -43 57 -67 57 -11 0 -37 11
-57 25 -58 39 -41 12 24 -38 33 -26 60 -51 60 -56 0 -5 11 -12 24 -15 21 -5
77 -58 87 -83 2 -4 24 -21 49 -37 71 -46 155 -118 180 -154 22 -32 63 -60 98
-67 10 -2 55 -13 102 -25 130 -33 130 -33 130 -21 0 6 -6 11 -12 11 -7 0 -5 5
5 11 9 5 17 16 17 24 0 19 35 37 64 33 12 -1 31 5 41 15 17 18 13 18 -121 12
l-139 -7 -55 42 c-30 23 -57 44 -59 45 -2 2 9 15 23 28 14 13 26 29 26 35 0 6
11 19 24 29 13 11 33 37 44 58 12 22 37 57 56 78 20 21 36 41 36 44 0 3 12 22
28 42 15 20 38 58 52 84 14 27 40 62 59 79 45 41 93 151 142 327 13 47 17 76
11 80 -7 4 -8 30 -3 71 5 36 8 134 7 217 -1 96 2 154 9 157 5 2 4 5 -2 5 -7 1
-13 10 -13 22 0 51 -72 135 -138 161 -32 13 -42 13 -57 2z m99 -810 c3 -8 2
-12 -4 -9 -6 3 -10 10 -10 16 0 14 7 11 14 -7z m-573 -71 c13 -16 24 -31 24
-34 0 -14 35 -39 55 -39 11 0 24 -8 27 -17 4 -10 14 -23 22 -30 14 -11 13 -12
-6 -13 -13 0 -23 -4 -23 -10 0 -5 -9 -10 -20 -10 -12 0 -20 -7 -20 -17 0 -14
-2 -15 -9 -4 -6 9 -11 10 -15 2 -13 -20 -36 -12 -36 12 0 13 -9 34 -20 47 -15
17 -20 37 -20 82 0 32 4 58 8 58 5 0 19 -12 33 -27z"/>
<path d="M5512 2425 c-11 -12 -10 -15 3 -15 8 0 15 7 15 15 0 18 -2 18 -18 0z"/>
<path d="M5540 2425 c0 -8 3 -15 6 -15 3 0 12 7 20 15 14 13 13 15 -5 15 -12
0 -21 -6 -21 -15z"/>
<path d="M4120 2365 c-12 -36 -20 -69 -17 -72 3 -2 15 26 26 63 26 88 20 95
-9 9z"/>
<path d="M1457 2238 c-4 -83 -7 -202 -7 -264 0 -62 -3 -115 -7 -117 -5 -3
-161 -2 -347 2 -277 5 -340 9 -344 20 -3 10 0 11 9 5 9 -5 7 2 -5 20 -12 19
-16 38 -12 58 3 16 2 27 -3 23 -5 -3 -13 0 -17 6 -3 6 0 15 7 20 11 6 11 11 1
21 -9 9 -12 9 -12 0 0 -7 -3 -12 -7 -12 -15 0 -13 68 2 80 17 14 21 60 5 60
-5 0 -10 -7 -10 -15 0 -8 -5 -15 -11 -15 -7 0 -9 10 -5 25 4 14 2 25 -3 25
-10 0 -20 -172 -10 -180 3 -3 0 -18 -7 -35 -11 -26 -13 0 -15 190 -1 128 -5
201 -9 175 l-7 -45 -1 39 c-1 22 -4 37 -6 35 -8 -8 -14 -63 -17 -149 -2 -73
-3 -79 -9 -40 -6 35 -7 39 -8 14 -1 -16 -7 -35 -14 -42 -9 -9 -9 -12 0 -12 7
0 12 -16 12 -40 0 -22 5 -40 10 -40 6 0 10 -5 10 -11 0 -6 -6 -9 -14 -6 -10 4
-16 -2 -19 -16 -2 -12 -5 2 -6 31 -1 33 -5 52 -13 52 -9 0 -9 3 -1 11 12 12 6
49 -7 49 -5 0 -16 -7 -24 -16 -15 -14 -16 -13 -18 8 -1 13 -2 30 -4 38 -1 8
-2 34 -3 58 -1 23 -5 42 -9 42 -4 0 -7 -55 -5 -122 2 -110 0 -120 -12 -98 -9
15 -14 55 -15 103 0 44 -4 77 -10 77 -6 0 -10 -32 -10 -75 0 -104 -47 -200
-76 -154 -9 15 -36 -57 -38 -101 -1 -31 2 -35 29 -41 17 -4 -60 -8 -170 -9
l-200 -3 190 -12 c105 -7 341 -14 525 -14 184 -1 450 -6 590 -11 219 -8 816
-15 948 -11 48 1 57 18 11 23 l-31 3 0 185 c0 102 -3 221 -6 264 l-7 79 -368
3 c-202 2 -371 5 -376 8 -4 3 -11 -63 -14 -146z m-927 -128 c0 -5 -4 -10 -10
-10 -5 0 -10 5 -10 10 0 6 5 10 10 10 6 0 10 -4 10 -10z"/>
<path d="M4217 2352 c-19 -20 -22 -32 -9 -32 5 0 14 11 20 25 14 30 11 31 -11
7z"/>
<path d="M679 2358 c-8 -22 -8 -68 0 -68 6 0 11 -7 11 -15 0 -8 7 -15 15 -15
9 0 18 -7 22 -16 10 -28 23 6 23 64 l0 52 -35 0 c-19 0 -35 -1 -36 -2z"/>
<path d="M4240 2333 c-1 -5 -21 -30 -45 -57 -25 -28 -45 -54 -45 -59 0 -5 -6
-7 -13 -4 -7 3 -14 -3 -15 -14 -4 -46 -5 -49 -17 -39 -8 6 -12 6 -13 -3 -1
-22 -37 -117 -44 -117 -7 0 2 34 21 83 6 15 9 27 6 27 -2 0 3 23 11 51 8 28
14 58 12 67 -2 9 -10 -8 -17 -38 -8 -30 -36 -124 -62 -208 -35 -108 -53 -188
-64 -274 -19 -154 -18 -182 3 -95 9 38 21 65 25 60 5 -4 8 12 6 37 -4 64 0 90
11 90 6 0 9 -3 9 -7 -1 -5 0 -35 1 -68 3 -58 3 -57 10 25 8 100 45 261 67 287
8 10 12 13 9 7 -16 -32 -58 -299 -49 -308 2 -2 21 4 41 14 20 9 44 20 52 24
15 6 -31 -1 -61 -10 -13 -3 -14 4 -8 48 9 66 20 111 28 118 3 3 17 27 31 54
29 57 98 128 120 123 8 -1 21 4 28 13 11 13 13 13 26 -2 16 -22 26 -23 26 -4
0 36 34 56 104 61 96 8 115 13 113 35 -1 17 -10 19 -71 17 -65 -2 -71 0 -83
23 -6 13 -20 30 -29 37 -19 14 -124 18 -124 6z m-204 -358 c-15 -41 -27 -57
-21 -26 7 40 16 61 24 61 5 0 3 -16 -3 -35z m-19 -70 c0 -8 -4 -15 -9 -15 -4
0 -8 7 -8 15 0 8 4 15 8 15 5 0 9 -7 9 -15z"/>
<path d="M2650 2326 c0 -7 83 -91 120 -121 l25 -20 -20 25 c-42 53 -125 129
-125 116z"/>
<path d="M5018 2285 c-35 -24 -89 -63 -121 -85 -88 -62 -92 -42 -7 38 75 71
94 104 30 54 -19 -15 -44 -25 -56 -24 -17 2 -25 -5 -37 -37 -9 -21 -21 -42
-27 -46 -23 -14 -70 -89 -70 -111 0 -12 -6 -29 -13 -36 -7 -7 -13 -22 -14 -33
-1 -11 -6 -47 -11 -80 -27 -159 -44 -284 -44 -317 1 -53 -39 -100 -76 -92 -22
4 -24 3 -12 -6 11 -8 -46 -9 -220 -4 -129 4 -236 8 -238 9 -7 6 -42 158 -42
181 0 12 9 29 20 37 20 14 20 15 -6 20 l-27 5 7 -117 c3 -64 8 -127 11 -141 3
-14 -2 -5 -11 20 -8 25 -18 73 -21 108 -3 34 -10 65 -14 68 -5 3 -7 -1 -4 -8
2 -7 6 -49 9 -93 8 -125 96 -373 171 -485 32 -47 50 -78 40 -70 -15 13 -19 12
-30 -3 -6 -9 -34 -40 -60 -68 -34 -36 -50 -47 -55 -38 -7 10 -14 9 -34 -5 -28
-18 -36 -39 -11 -30 8 4 15 2 15 -4 0 -5 -7 -12 -15 -16 -8 -3 -15 -1 -15 5 0
6 -8 9 -17 7 -10 -1 -24 1 -30 5 -7 4 -21 4 -30 -2 -36 -19 -204 -10 -172 10
7 4 -7 10 -37 14 -27 4 -57 14 -66 23 -27 23 -21 -2 8 -37 14 -17 21 -31 16
-31 -6 0 -14 -9 -17 -20 -4 -13 -15 -20 -32 -20 -30 0 -93 -44 -93 -65 0 -8
19 -23 43 -33 23 -11 51 -29 61 -41 11 -11 24 -21 29 -21 6 0 0 11 -13 25 -13
14 -21 27 -18 30 6 6 78 -71 78 -83 0 -4 129 -7 288 -7 158 0 271 1 252 3 -25
2 -38 9 -45 25 -10 22 -13 24 -63 26 -15 0 -40 11 -54 22 -23 19 -25 25 -16
43 11 20 10 20 -13 4 -39 -25 -262 -46 -285 -27 -7 6 -25 9 -41 8 -59 -5 -81
1 -86 22 -9 34 32 42 131 25 47 -8 89 -13 93 -10 4 2 10 0 14 -6 11 -17 54
-11 65 9 13 25 -5 38 -19 14 -8 -16 -13 -17 -43 -5 -18 8 -46 15 -61 17 -41 4
-51 18 -28 39 17 15 31 17 83 13 35 -3 75 -9 90 -12 21 -6 32 -2 51 19 29 32
37 33 30 5 -4 -16 -2 -20 8 -17 8 3 14 13 15 24 2 38 5 42 38 58 50 24 75 21
87 -11 8 -22 7 -34 -7 -57 -14 -23 -14 -30 -3 -37 8 -5 22 -3 35 5 19 13 46
20 69 17 14 -1 18 -51 5 -51 -6 0 -10 -7 -10 -15 0 -19 0 -19 53 10 46 26 62
48 50 67 -4 7 -1 8 6 3 12 -7 89 70 116 116 6 9 34 45 63 78 54 64 60 79 41
98 -6 6 -8 20 -5 31 6 19 71 83 112 110 10 7 12 10 4 6 -11 -6 -11 -2 3 13 9
11 17 23 17 27 0 10 -53 -27 -73 -52 -10 -12 -23 -20 -28 -17 -5 4 -9 47 -9
96 0 142 30 187 138 209 65 13 84 26 61 41 -15 10 -62 5 -103 -11 -42 -15
-106 -13 -106 4 0 8 12 51 26 96 20 66 24 92 18 137 l-7 55 62 57 c66 61 79
87 35 71 -38 -15 -54 -12 -54 9 0 24 67 86 161 148 90 60 189 132 189 138 0
10 -10 4 -72 -40z m-371 -825 c-2 -10 -11 -28 -20 -38 -9 -10 -14 -22 -10 -25
3 -4 2 -7 -4 -7 -14 0 -65 41 -59 47 2 3 6 3 9 1 3 -1 13 4 23 13 11 10 28 19
39 22 11 2 21 5 22 6 2 0 2 -8 0 -19z m-557 -20 c0 -10 5 -22 10 -25 6 -3 10
-14 10 -23 1 -9 9 -34 19 -56 l18 -38 11 31 c6 17 13 31 16 31 3 0 3 -7 0 -15
-4 -8 -1 -15 6 -15 9 0 8 -6 -3 -18 -10 -10 -17 -25 -17 -33 0 -12 2 -11 10 1
9 13 10 13 11 0 0 -10 3 -8 8 5 7 16 9 13 15 -20 4 -21 19 -61 32 -87 14 -27
22 -54 18 -60 -4 -7 -3 -8 4 -4 7 4 12 4 13 -1 4 -45 17 -75 29 -68 6 3 7 -1
4 -9 -3 -9 -2 -16 3 -16 6 0 15 -11 21 -24 6 -13 25 -40 43 -61 31 -35 48 -72
28 -59 -5 3 -7 9 -4 13 6 10 -28 42 -47 44 -18 3 -66 37 -51 37 6 0 16 -7 23
-15 7 -9 15 -14 17 -11 3 2 -22 37 -54 78 -82 101 -117 163 -151 265 -17 49
-37 105 -46 125 -18 43 -20 62 -6 53 6 -3 10 -15 10 -25z m353 -89 c11 -2 9
-51 -3 -51 -5 0 -7 6 -4 14 5 13 -24 31 -34 21 -3 -3 0 -5 6 -5 7 0 12 -9 12
-21 0 -11 -5 -17 -10 -14 -6 4 -8 11 -5 16 4 5 1 9 -4 9 -6 0 -11 6 -11 14 0
8 -6 16 -12 19 -11 4 42 3 65 -2z m-195 -28 c2 -7 -3 -13 -12 -13 -9 0 -16 5
-16 11 0 5 -5 7 -12 3 -7 -4 -8 -3 -4 5 10 15 38 11 44 -6z m72 -73 c0 -5 -4
-10 -10 -10 -5 0 -10 5 -10 10 0 6 5 10 10 10 6 0 10 -4 10 -10z m-451 -596
c2 -2 -10 -4 -27 -4 -18 0 -35 0 -39 -1 -4 0 -9 5 -11 11 -3 8 7 9 34 4 22 -4
41 -8 43 -10z"/>
<path d="M4170 1230 c0 -5 5 -10 11 -10 5 0 7 5 4 10 -3 6 -8 10 -11 10 -2 0
-4 -4 -4 -10z"/>
<path d="M518 2308 c9 -9 15 -9 24 0 9 9 7 12 -12 12 -19 0 -21 -3 -12 -12z"/>
<path d="M5293 2279 c7 -31 7 -58 -2 -101 -11 -56 -7 -122 9 -143 10 -12 60
-219 60 -246 0 -16 7 -19 48 -19 26 0 182 -2 347 -5 165 -2 507 -7 760 -10
253 -4 483 -10 510 -14 28 -4 74 -6 103 -3 l52 4 0 283 0 283 -64 4 -65 3 -5
-65 c-3 -36 -11 -157 -17 -270 -6 -113 -12 -206 -14 -208 -7 -8 -655 5 -664
13 -2 3 25 5 60 5 l64 0 -2 68 c-2 37 -5 94 -9 127 -4 37 -1 78 6 105 18 64
21 98 9 105 -7 5 -6 11 2 21 8 10 8 14 0 14 -6 0 -11 8 -11 19 0 16 -9 18 -80
19 -44 0 -83 -4 -86 -9 -3 -5 -10 -7 -15 -4 -5 4 -9 -21 -9 -59 0 -41 4 -66
11 -66 8 0 9 -28 4 -92 -3 -51 -7 -127 -8 -168 l-2 -75 30 -7 c17 -4 -89 -5
-235 -3 -146 3 -328 5 -406 5 l-140 0 0 145 c1 80 4 145 7 145 3 0 5 39 4 88
-3 134 -2 131 -25 125 -13 -4 -20 0 -20 9 0 12 -22 15 -109 17 l-109 2 11 -42z
m214 -66 c-3 -10 -5 -4 -5 12 0 17 2 24 5 18 2 -7 2 -21 0 -30z m800 -45 c-3
-7 -5 -2 -5 12 0 14 2 19 5 13 2 -7 2 -19 0 -25z m10 -60 c-3 -8 -6 -5 -6 6
-1 11 2 17 5 13 3 -3 4 -12 1 -19z m-805 -231 c-8 -28 -9 -26 -9 23 0 43 1 50
8 32 5 -14 5 -38 1 -55z"/>
<path d="M2756 2288 c4 -7 22 -36 42 -65 25 -37 36 -67 40 -103 l5 -50 -37 0
c-20 0 -36 -2 -36 -5 0 -3 12 -16 27 -29 15 -13 33 -39 39 -57 10 -27 13 -29
13 -11 1 12 7 22 16 22 8 0 14 -3 13 -7 -2 -8 8 -86 18 -135 3 -16 12 -28 21
-28 12 0 14 7 9 33 -3 17 -8 75 -12 127 -4 57 -18 137 -36 200 -31 109 -46
142 -34 78 6 -33 4 -38 -11 -38 -11 0 -29 17 -43 40 -14 22 -28 40 -33 40 -4
0 -5 -6 -1 -12z"/>
<path d="M4166 2283 c-6 -14 -5 -15 5 -6 7 7 10 15 7 18 -3 3 -9 -2 -12 -12z"/>
<path d="M602 2250 c0 -19 2 -27 5 -17 2 9 2 25 0 35 -3 9 -5 1 -5 -18z"/>
<path d="M3621 2248 c-1 -15 4 -30 9 -33 12 -7 12 12 0 40 -8 18 -9 17 -9 -7z"/>
<path d="M5881 2218 c0 -27 4 -48 9 -48 11 0 11 21 0 65 -7 27 -8 25 -9 -17z"/>
<path d="M3710 2173 c0 -13 5 -23 10 -23 13 0 13 11 0 30 -8 12 -10 11 -10 -7z"/>
<path d="M421 2114 c0 -11 3 -14 6 -6 3 7 2 16 -1 19 -3 4 -6 -2 -5 -13z"/>
<path d="M5922 2110 c0 -14 2 -19 5 -12 2 6 2 18 0 25 -3 6 -5 1 -5 -13z"/>
<path d="M2544 2112 c7 -12 135 -56 142 -49 3 3 -19 14 -48 25 -84 31 -101 35
-94 24z"/>
<path d="M6283 2045 c0 -44 2 -61 4 -37 2 23 2 59 0 80 -2 20 -4 1 -4 -43z"/>
<path d="M5723 2010 c0 -25 2 -35 4 -22 2 12 2 32 0 45 -2 12 -4 2 -4 -23z"/>
<path d="M2960 2010 c8 -5 20 -10 25 -10 6 0 3 5 -5 10 -8 5 -19 10 -25 10 -5
0 -3 -5 5 -10z"/>
<path d="M4625 1969 c-22 -10 -29 -16 -15 -13 28 7 80 33 65 33 -5 0 -28 -9
-50 -20z"/>
<path d="M2801 1922 c24 -35 52 -70 61 -79 17 -15 18 -15 18 1 0 28 -15 49
-71 96 l-53 44 45 -62z"/>
<path d="M5823 1930 c0 -25 2 -35 4 -22 2 12 2 32 0 45 -2 12 -4 2 -4 -23z"/>
<path d="M2690 1945 c0 -2 10 -10 23 -16 20 -11 21 -11 8 4 -13 16 -31 23 -31
12z"/>
<path d="M3247 1929 c7 -7 15 -10 18 -7 3 3 -2 9 -12 12 -14 6 -15 5 -6 -5z"/>
<path d="M5929 1918 c-1 -5 -2 -11 -3 -15 -1 -5 -5 -14 -9 -20 -5 -7 -5 -13 0
-13 4 0 1 -5 -7 -10 -11 -7 -20 -4 -32 13 l-18 22 -1 -25 c-3 -51 -4 -55 -21
-54 -10 1 -18 -2 -18 -6 0 -4 29 -8 65 -9 l65 -1 -1 42 c0 39 -15 94 -20 76z"/>
<path d="M5775 1900 c3 -5 8 -10 11 -10 2 0 4 5 4 10 0 6 -5 10 -11 10 -5 0
-7 -4 -4 -10z"/>
<path d="M5726 1881 c-2 -3 -7 -20 -11 -38 -6 -29 -4 -33 19 -39 14 -3 31 -4
37 -2 13 4 21 48 8 48 -3 0 -9 8 -11 18 -5 17 -35 26 -42 13z"/>
<path d="M4288 1803 c7 -3 16 -2 19 1 4 3 -2 6 -13 5 -11 0 -14 -3 -6 -6z"/>
<path d="M2881 1775 c0 -11 4 -27 9 -35 9 -13 10 -13 9 0 0 8 -4 24 -9 35 l-9
20 0 -20z"/>
<path d="M4165 1773 c-11 -3 -24 -10 -30 -15 -13 -13 46 -1 60 13 10 10 4 10
-30 2z"/>
<path d="M3085 1665 c0 -27 4 -35 18 -35 9 0 17 5 17 10 0 6 -4 10 -10 10 -5
0 -9 10 -7 21 1 12 -2 23 -8 25 -5 2 -10 -12 -10 -31z"/>
<path d="M1126 1663 c-3 -10 -7 -145 -8 -300 l-3 -283 -377 0 -378 0 -1 98 c0
63 -3 90 -9 77 -6 -14 -9 -3 -9 40 -1 45 2 56 10 45 8 -11 9 -8 5 15 -3 17 -9
93 -12 171 l-7 141 -51 -2 c-28 -1 -62 -3 -76 -4 l-25 -1 3 -100 c1 -55 -2
-114 -7 -132 l-9 -33 -1 30 c-1 17 -8 38 -16 49 -13 17 -14 16 -24 -15 -8 -31
-9 -27 -10 34 -1 52 3 69 14 73 11 5 13 10 5 19 -6 7 -8 19 -4 28 3 10 -2 18
-15 22 -12 3 -19 10 -17 13 8 13 -78 0 -91 -14 -11 -10 -13 -71 -11 -291 l3
-278 550 -2 c445 -2 562 -5 614 -17 45 -10 71 -12 89 -5 18 7 34 6 54 -2 15
-6 44 -8 65 -5 21 4 63 6 93 5 30 -1 80 -2 112 -3 31 0 54 -4 51 -8 -7 -13 42
-9 55 4 9 9 12 9 12 -3 0 -19 147 -21 155 -1 5 14 67 16 81 2 7 -7 28 -4 64 8
48 16 52 20 35 30 -18 10 -19 20 -16 159 5 234 5 377 -2 405 -5 19 -16 28 -38
33 -16 4 -178 8 -360 9 -289 1 -329 0 -330 -14 0 -10 -3 -9 -9 5 -5 12 -9 15
-9 6 -1 -12 -4 -12 -13 -3 -7 7 -38 12 -69 12 -46 0 -59 -3 -63 -17z m-839
-145 c-3 -8 -6 -5 -6 6 -1 11 2 17 5 13 3 -3 4 -12 1 -19z m30 -15 c-3 -10 -5
-4 -5 12 0 17 2 24 5 18 2 -7 2 -21 0 -30z m3 -122 c0 -5 -7 -14 -15 -21 -16
-14 -18 -10 -9 14 6 17 24 22 24 7z m0 -51 c0 -5 -2 -10 -4 -10 -3 0 -8 5 -11
10 -3 6 -1 10 4 10 6 0 11 -4 11 -10z"/>
<path d="M2980 1656 c0 -2 18 -15 40 -30 40 -26 84 -34 95 -17 3 5 -8 9 -24 9
-16 -1 -44 9 -64 21 -33 20 -47 25 -47 17z"/>
<path d="M5387 1553 c-12 -118 -9 -136 35 -229 42 -88 42 -90 44 -212 1 -68 5
-126 9 -130 9 -10 239 -9 246 1 3 5 274 4 602 -2 741 -14 867 -14 847 -1 -8 5
-72 10 -142 10 l-127 0 5 243 c2 133 7 261 10 283 l5 42 -38 -3 c-21 -1 -57 1
-79 5 -23 4 -49 3 -57 -2 -9 -5 -18 -4 -22 2 -4 6 -12 5 -21 -4 -11 -12 -14
-57 -16 -228 -2 -320 -2 -328 -13 -329 -5 0 -82 0 -170 0 -179 2 -286 10 -245
21 23 5 25 10 23 56 -4 126 -3 246 3 256 4 7 3 8 -4 4 -8 -5 -12 3 -12 24 0
18 4 29 10 25 6 -4 9 15 9 52 -2 57 -2 57 -10 18 -5 -29 -6 -20 -4 35 l4 75
-13 -45 c-13 -43 -20 -46 -17 -7 1 9 -1 17 -6 18 -59 6 -63 4 -63 -18 0 -17
-6 -23 -21 -23 -16 0 -19 4 -15 17 8 21 -10 33 -52 33 -18 0 -42 5 -52 10 -16
9 -20 7 -24 -12 -7 -32 -14 -134 -22 -340 l-7 -177 79 -4 c43 -1 3 -4 -89 -5
l-169 -2 7 233 c4 127 8 256 10 284 2 54 -11 79 -37 70 -7 -2 -30 2 -52 9 -26
10 -89 14 -191 14 l-152 0 -6 -67z m823 -93 l-8 -35 -1 31 c-1 17 2 34 6 37
11 12 12 3 3 -33z m-25 -124 c6 -72 -3 -123 -19 -97 -4 6 -2 11 3 11 18 0 12
24 -9 38 -20 12 -28 62 -10 62 6 0 10 14 10 30 0 60 18 28 25 -44z m-448 -33
c-3 -10 -5 -4 -5 12 0 17 2 24 5 18 2 -7 2 -21 0 -30z m503 -33 c0 -11 -5 -20
-11 -20 -5 0 -7 -6 -3 -12 5 -9 4 -10 -4 -3 -12 11 -5 55 9 55 5 0 9 -9 9 -20z
m-63 -256 c-3 -3 -12 -4 -19 -1 -8 3 -5 6 6 6 11 1 17 -2 13 -5z"/>
<path d="M4550 1570 c-21 -7 -21 -8 -5 -9 11 0 27 4 35 9 18 11 5 11 -30 0z"/>
<path d="M5098 1483 c-24 -6 -23 -23 1 -23 32 0 125 -33 139 -49 6 -8 12 -11
12 -7 0 4 21 -12 46 -36 25 -24 50 -44 55 -46 16 -6 10 13 -11 36 -11 12 -20
26 -20 31 0 14 -58 57 -110 80 -43 20 -75 24 -112 14z"/>
<path d="M6940 1440 c0 -16 4 -30 8 -30 5 0 9 14 9 30 0 17 -4 30 -9 30 -4 0
-8 -13 -8 -30z"/>
<path d="M4835 1410 c-3 -6 -3 -20 1 -32 5 -16 3 -20 -10 -15 -8 3 -18 1 -22
-5 -4 -7 -3 -8 4 -4 7 4 12 2 12 -4 0 -8 6 -8 20 0 11 6 20 21 20 35 0 26 -15
41 -25 25z"/>
<path d="M2479 1339 c-9 -6 6 -9 45 -9 33 0 57 2 54 5 -10 10 -85 13 -99 4z"/>
<path d="M2808 1321 c9 -16 18 -28 20 -27 6 7 -18 56 -27 56 -6 0 -2 -13 7
-29z"/>
<path d="M4923 1343 c9 -2 23 -2 30 0 6 3 -1 5 -18 5 -16 0 -22 -2 -12 -5z"/>
<path d="M6942 1325 c0 -16 2 -22 5 -12 2 9 2 23 0 30 -3 6 -5 -1 -5 -18z"/>
<path d="M4753 1262 c-42 -27 -71 -63 -35 -43 21 12 89 70 82 70 -3 1 -24 -12
-47 -27z"/>
<path d="M2310 1270 c-8 -5 -23 -10 -33 -10 -28 0 -139 -58 -166 -86 -42 -45
-14 -38 56 15 37 28 77 51 88 51 24 1 106 38 85 39 -8 0 -22 -4 -30 -9z"/>
<path d="M5237 1245 c18 -14 59 -56 93 -93 33 -37 58 -59 54 -49 -3 9 -9 17
-13 17 -3 0 -15 15 -25 34 -19 35 -88 98 -121 109 -12 5 -8 -2 12 -18z"/>
<path d="M6937 1180 c-4 -52 -11 -115 -14 -138 -6 -42 -5 -44 18 -40 13 1 24
10 24 18 0 8 -6 14 -12 13 -7 -2 -13 4 -13 13 0 8 5 12 10 9 12 -7 8 47 -5 79
-4 10 -4 21 1 25 5 3 7 31 4 61 -5 52 -6 50 -13 -40z"/>
<path d="M2340 1210 c0 -5 7 -10 15 -10 8 0 15 5 15 10 0 6 -7 10 -15 10 -8 0
-15 -4 -15 -10z"/>
<path d="M2287 1189 c8 -8 16 -8 30 0 16 9 14 10 -11 11 -22 0 -27 -3 -19 -11z"/>
<path d="M4120 1181 c0 -7 -5 -9 -12 -5 -7 4 -10 4 -6 -1 4 -4 2 -17 -4 -29
-12 -22 -20 -66 -12 -66 3 0 21 7 42 17 20 9 40 15 45 15 12 -3 8 3 -23 43
-16 21 -30 32 -30 26z"/>
<path d="M2389 1131 c-49 -32 -119 -101 -102 -101 6 0 32 21 59 46 26 25 61
55 78 65 17 10 26 19 20 19 -5 0 -30 -13 -55 -29z"/>
<path d="M1868 1023 c7 -3 16 -2 19 1 4 3 -2 6 -13 5 -11 0 -14 -3 -6 -6z"/>
<path d="M4834 995 c-9 -37 2 -41 14 -6 7 18 7 31 2 31 -5 0 -12 -11 -16 -25z"/>
<path d="M2690 988 c0 -14 7 -31 15 -38 12 -10 13 -7 5 21 -12 42 -20 49 -20
17z"/>
<path d="M3860 945 c0 -8 8 -11 20 -8 11 3 20 7 20 8 0 1 -9 5 -20 8 -12 3
-20 0 -20 -8z"/>
<path d="M2271 941 c-8 -5 -9 -11 -3 -15 5 -3 12 1 16 9 6 17 6 18 -13 6z"/>
<path d="M2218 896 c-10 -7 -18 -16 -18 -20 0 -4 -12 -18 -26 -31 -14 -13 -23
-29 -20 -34 11 -17 72 21 86 54 8 17 15 33 18 38 6 12 -22 7 -40 -7z"/>
<path d="M5080 840 c-13 -9 -13 -11 0 -20 19 -13 42 -13 75 0 23 9 28 7 32 -9
3 -11 12 -22 22 -24 15 -4 14 -5 -1 -6 -19 -1 -32 -32 -24 -58 8 -26 -17 -54
-45 -51 -19 2 -25 -2 -27 -22 -4 -31 -61 -84 -126 -117 -26 -13 -62 -39 -80
-56 -41 -40 -155 -97 -195 -97 -24 0 -31 4 -31 19 0 10 7 24 15 31 19 15 19
86 1 119 -12 21 -13 15 -19 -65 -3 -49 -9 -98 -13 -108 -5 -14 -4 -17 4 -12 7
4 12 5 12 2 0 -2 -28 -23 -61 -45 -55 -36 -68 -41 -118 -40 l-56 1 40 9 c22 5
50 11 62 14 33 8 82 53 98 91 17 41 22 193 7 220 -29 53 -178 164 -220 164
-23 0 -23 0 5 -24 40 -34 58 -92 37 -123 -8 -13 -24 -24 -37 -24 -51 -3 -52
-4 -49 -32 2 -22 -2 -30 -17 -34 -12 -3 -19 -8 -16 -12 2 -4 -6 -7 -18 -6 -17
1 -23 9 -27 36 -4 24 -8 30 -14 20 -6 -10 -23 -12 -66 -7 -36 4 -61 3 -65 -3
-7 -12 -63 -3 -83 12 -7 5 -15 7 -19 4 -3 -4 -14 -2 -24 4 -14 7 -19 6 -19 -3
0 -8 -3 -9 -10 -2 -15 15 -98 5 -144 -17 -24 -11 -43 -15 -50 -10 -7 6 -27 4
-51 -5 -43 -15 -149 -20 -184 -9 -16 5 -20 12 -16 25 4 13 0 20 -14 25 -12 3
-18 12 -15 20 3 8 12 11 20 8 8 -3 14 0 14 6 0 14 -16 14 -40 -1 -15 -9 -27
-10 -48 -2 -38 14 -62 2 -55 -28 4 -22 4 -23 -11 -4 -9 11 -16 26 -16 33 0 23
-17 14 -30 -17 -14 -33 -52 -49 -73 -31 -12 10 -77 14 -177 13 -19 -1 -36 1
-39 4 -3 2 10 25 27 49 l32 45 -30 -15 c-33 -17 -84 -66 -125 -119 -32 -42
-35 -100 -11 -174 28 -83 142 -173 199 -157 20 5 20 5 4 -5 -24 -15 -67 -5
-154 38 -65 33 -74 35 -97 23 -23 -13 -28 -11 -60 17 -19 17 -66 48 -103 70
-83 49 -145 97 -135 106 10 11 -16 24 -119 56 -95 29 -129 51 -129 83 0 25
-23 21 -50 -8 -13 -14 -37 -27 -54 -31 -17 -3 -38 -11 -46 -17 -21 -17 -50
-63 -50 -82 0 -8 -14 -27 -31 -42 -109 -96 -145 -164 -155 -293 -4 -47 -13
-97 -21 -112 l-14 -28 2053 0 c1187 0 2059 4 2067 9 16 10 16 12 32 373 11
262 8 304 -17 294 -7 -3 -34 2 -59 11 -39 15 -52 15 -106 4 -44 -9 -65 -9 -72
-2 -6 6 -53 11 -109 11 -93 0 -98 -1 -102 -22 -4 -21 -20 -454 -20 -537 l1
-33 -20 38 c-33 66 -79 137 -123 188 -27 31 -44 62 -48 87 -4 22 -13 42 -21
45 -8 3 -21 27 -30 53 -18 56 -48 87 -90 96 l-30 6 25 -18 c42 -30 87 -75 65
-65 -11 6 -24 11 -30 12 -5 1 -25 8 -44 16 -45 19 -81 18 -81 -2 0 -11 -5 -14
-16 -10 -9 3 -20 6 -25 6 -5 0 -9 7 -9 16 0 10 6 14 15 10 19 -7 19 -1 -1 19
-12 11 -13 19 -5 29 6 7 9 15 6 18 -3 3 13 13 35 23 21 10 47 26 56 36 14 16
14 19 -7 40 -19 19 -20 24 -8 33 27 20 11 43 -34 49 -23 3 -58 8 -77 12 -19 3
-42 1 -50 -5z m-1606 -315 c3 -8 1 -15 -3 -15 -5 0 -11 7 -15 15 -3 8 -1 15 3
15 5 0 11 -7 15 -15z m1876 -11 c0 -8 -4 -12 -10 -9 -5 3 -10 13 -10 21 0 8 5
12 10 9 6 -3 10 -13 10 -21z m-942 -46 c28 -23 7 -78 -30 -78 -13 0 -18 8 -18
31 0 26 -3 30 -17 24 -34 -14 -48 -15 -62 -6 -12 8 -12 12 -2 25 21 25 99 28
129 4z m1007 -56 c-6 -6 -55 40 -55 52 0 6 13 -3 30 -19 16 -16 28 -31 25 -33z
m-1189 -7 c-11 -12 -31 -15 -71 -13 -30 2 -55 6 -55 10 0 4 -12 3 -27 -3 -20
-7 -28 -6 -35 3 -4 7 -8 8 -8 3 0 -6 -12 -10 -27 -10 -16 1 -37 -4 -48 -10
-29 -17 -146 -20 -143 -3 2 8 -5 12 -17 11 -13 -2 -9 2 10 11 17 8 68 16 115
19 47 3 135 9 195 13 61 3 112 9 115 11 13 13 9 -29 -4 -42z m-556 -64 c0 -5
-7 -12 -16 -15 -28 -11 -54 -6 -54 9 0 10 11 15 35 15 19 0 35 -4 35 -9z m686
-9 c6 -4 16 -17 23 -30 10 -19 8 -25 -16 -48 l-28 -26 -3 36 c-3 28 -8 36 -23
36 -24 0 -25 16 -1 29 20 12 33 13 48 3z m-153 -127 c-3 -9 -8 -14 -10 -11 -3
3 -2 9 2 15 9 16 15 13 8 -4z m-28 -5 c3 -5 1 -10 -4 -10 -6 0 -11 5 -11 10 0
6 2 10 4 10 3 0 8 -4 11 -10z m-205 -20 c0 -5 -5 -10 -11 -10 -5 0 -7 5 -4 10
3 6 8 10 11 10 2 0 4 -4 4 -10z m337 -27 c6 -16 -43 -70 -55 -58 -3 3 3 12 14
21 10 8 13 13 7 9 -16 -8 -16 0 -1 25 16 24 27 25 35 3z"/>
<path d="M2779 813 c23 -34 39 -48 47 -41 2 2 -13 20 -33 39 l-36 34 22 -32z"/>
<path d="M2382 814 c-29 -13 4 -24 71 -23 50 0 66 3 51 9 -29 12 -106 20 -122
14z"/>
<path d="M2296 792 c-13 -12 -4 -19 19 -14 14 2 23 7 20 10 -8 8 -33 11 -39 4z"/>
<path d="M773 760 c-24 -4 -45 -9 -48 -12 -7 -7 -12 -179 -14 -487 l-1 -203
-355 7 c-318 6 -355 5 -355 -9 0 -14 38 -16 334 -16 349 0 398 -3 389 -25 -4
-11 87 -14 502 -14 287 -1 504 3 501 8 -9 14 33 21 132 21 54 0 92 4 92 10 0
6 -28 10 -64 10 -35 0 -77 3 -94 6 l-31 6 3 112 c2 61 0 119 -5 128 -5 9 -11
43 -13 75 -2 32 -2 49 1 39 3 -11 11 -25 18 -32 10 -11 14 -9 17 10 3 12 1 33
-4 46 -4 12 -13 68 -18 124 -6 55 -12 119 -15 141 -3 26 -2 31 3 15 9 -31 32
-38 24 -7 -12 49 -24 52 -220 52 -100 0 -182 -2 -182 -5 0 -6 -242 -3 -309 3
-24 3 -76 1 -117 -4 -40 -4 -86 -5 -101 0 -15 4 -47 4 -70 1z m750 -747 c-7
-2 -19 -2 -25 0 -7 3 -2 5 12 5 14 0 19 -2 13 -5z"/>
<path d="M3260 711 c19 -17 41 -31 49 -31 17 0 3 11 -54 44 -29 17 -29 17 5
-13z"/>
<path d="M2216 706 c22 -34 110 -106 101 -82 -4 10 -7 31 -7 47 0 19 -5 29
-15 29 -8 0 -15 -9 -15 -20 0 -11 -4 -20 -9 -20 -11 0 -32 25 -30 36 4 23 -3
34 -21 34 -19 0 -20 -1 -4 -24z"/>
<path d="M4330 657 c0 -26 5 -36 20 -40 21 -5 28 7 10 18 -5 3 -10 15 -10 25
0 10 -4 22 -10 25 -6 4 -10 -8 -10 -28z"/>
<path d="M4271 664 c0 -11 3 -14 6 -6 3 7 2 16 -1 19 -3 4 -6 -2 -5 -13z"/>
<path d="M5295 650 c-3 -5 10 -19 29 -31 20 -12 36 -25 36 -30 0 -5 4 -9 8 -9
4 0 6 16 4 36 -4 32 -7 35 -28 31 -13 -2 -24 0 -24 4 0 12 -17 11 -25 -1z"/>
<path d="M5401 595 c0 -33 4 -69 8 -80 5 -12 7 9 4 50 -6 91 -11 105 -12 30z"/>
<path d="M5423 600 c0 -30 2 -43 4 -27 2 15 2 39 0 55 -2 15 -4 2 -4 -28z"/>
<path d="M6416 587 c-4 -12 -9 -47 -11 -77 -2 -41 -1 -47 5 -25 6 25 8 21 9
-27 0 -32 6 -58 11 -58 6 0 10 -7 10 -15 0 -8 -6 -15 -14 -15 -10 0 -16 14
-18 43 -2 23 -3 -29 -4 -117 -1 -121 -4 -160 -15 -166 -7 -5 -17 -6 -21 -4 -4
3 -8 -24 -8 -60 l0 -66 176 0 c147 0 175 2 165 14 -6 7 -9 26 -7 42 2 16 1 22
-1 14 -11 -34 -18 -26 -15 18 2 31 0 42 -6 33 -6 -8 -11 -9 -13 -3 -2 6 -27
12 -56 14 -64 4 -69 13 -72 122 -2 86 -8 108 -23 82 -7 -12 -13 -14 -29 -6
-26 15 -26 80 0 104 18 17 20 17 24 -1 2 -10 3 -5 1 11 -3 17 -18 41 -38 59
-34 30 -34 31 -13 47 21 18 18 34 -12 50 -15 8 -20 5 -25 -13z m-39 -519 c-3
-7 -5 -2 -5 12 0 14 2 19 5 13 2 -7 2 -19 0 -25z"/>
<path d="M6526 586 c-7 -27 1 -56 15 -56 5 0 9 18 9 40 0 44 -14 54 -24 16z"/>
<path d="M4771 558 c0 -28 2 -30 9 -13 12 28 12 45 0 45 -5 0 -10 -15 -9 -32z"/>
<path d="M6661 544 c0 -11 3 -14 6 -6 3 7 2 16 -1 19 -3 4 -6 -2 -5 -13z"/>
<path d="M6688 540 c-7 -24 -3 -38 8 -28 3 4 4 17 2 30 l-3 23 -7 -25z"/>
<path d="M6373 515 c0 -22 2 -30 4 -17 2 12 2 30 0 40 -3 9 -5 -1 -4 -23z"/>
<path d="M6521 483 c1 -16 5 -41 9 -58 6 -25 8 -20 9 28 0 32 -3 57 -9 57 -5
0 -9 -12 -9 -27z"/>
<path d="M6677 485 c-7 -16 8 -29 23 -20 6 3 10 1 10 -6 0 -7 3 -10 6 -7 6 7
-17 48 -27 48 -4 0 -9 -7 -12 -15z"/>
<path d="M2850 435 c0 -17 -7 -28 -22 -34 -21 -8 -22 -10 -4 -16 11 -5 21 -3
27 6 9 15 12 69 4 69 -3 0 -5 -11 -5 -25z"/>
<path d="M2938 401 c-7 -69 1 -95 30 -98 21 -3 22 -2 7 20 -8 13 -18 47 -23
77 l-8 55 -6 -54z"/>
</g>
</svg>
